<?xml version="1.0" encoding="utf-8"?>
<!-- Generator: Adobe Illustrator 21.0.0, SVG Export Plug-In . SVG Version: 6.00 Build 0)  -->
<svg version="1.1" id="Layer_1" xmlns="http://www.w3.org/2000/svg" xmlns:xlink="http://www.w3.org/1999/xlink" x="0px" y="0px"
	 viewBox="0 0 400 400" style="enable-background:new 0 0 400 400;" xml:space="preserve">
<style type="text/css">
	.st0{fill-rule:evenodd;clip-rule:evenodd;fill:url(#SVGID_1_);}
	.st1{fill-rule:evenodd;clip-rule:evenodd;fill:url(#SVGID_2_);}
</style>
<g>
	<linearGradient id="SVGID_1_" gradientUnits="userSpaceOnUse" x1="19" y1="200.0272" x2="381" y2="200.0272">
		<stop  offset="0" style="stop-color:#E9AC21"/>
		<stop  offset="0.5" style="stop-color:#EEE84C"/>
		<stop  offset="1" style="stop-color:#E9AC21"/>
	</linearGradient>
	<path class="st0" d="M378.3,103.3c-8-20.3-32.7-29.5-67-29.5c24.2,2,41.2,9.8,46.8,24.1c14.2,36-47.5,91.3-137.9,126.9
		c-90.4,35.6-174,47.4-183.2,9.8c-6.3-25.7,11.9-58.4,49.9-87.8c-48.8,30.5-74.8,64.2-66.5,96.7c8.3,32.4,61.3,41.5,127.3,29.5v31.3
		h-18.5l-7.5,22h166.6l-7.5-22h-18.5v-69.4C342.9,195.8,393.4,141.6,378.3,103.3z M174.3,304.2v-37.1c5.8-1.5,11.7-3.1,17.6-4.9v42
		H174.3z M235.9,304.2h-17.6v-50.7c3.7-1.3,15.4-5.9,17.6-6.8V304.2z"/>
	<linearGradient id="SVGID_2_" gradientUnits="userSpaceOnUse" x1="89.3833" y1="149.7952" x2="321.7336" y2="149.7952">
		<stop  offset="0" style="stop-color:#5D411D"/>
		<stop  offset="0.5" style="stop-color:#FCDC57"/>
		<stop  offset="1" style="stop-color:#5D411D"/>
	</linearGradient>
	<path class="st1" d="M271.6,73.8c-7.1,0-20.1,0-20.1,0H157c0,0-11.3,0-17.5,0c-27.7,0-50.2,22.5-50.2,50.2
		c0,27.7,22.5,50.2,50.2,50.2c2.8,0,5.6-0.2,8.3-0.7v52.4c8.5-2.1,17.4-4.6,26.4-7.4v-58.3c5.2-5,8-11,10.7-17.8h6.9v70.3
		c8.7-3,17.5-6.2,26.4-9.7v-60.6h7.9c2.5,6.3,5,12.1,9.7,16.8v36.6c9.2-4,18-8.2,26.4-12.5v-10c3,0.6,6.1,0.9,9.3,0.9
		c27.7,0,50.2-22.5,50.2-50.2C321.7,96.2,299.3,73.8,271.6,73.8z M223,118.8h-35.8l-3.8-6.9h43.4L223,118.8z M274.7,158
		c-11.2,1.4-20.8-1.9-28.2-10.5c-6.4-7.5-7.8-16.4-5.1-25.8c3.3-11.9,13.2-19.1,25.7-19.9c5.5-0.3,10.7,0.5,15.3,3.6
		c7.2,4.9,10.9,11.8,10.2,20.5c-0.8,9-6,15.2-14.3,18.6c-6.5,2.6-13,1.9-19.1-1.6c-5-2.9-6.8-7.5-6.7-12.9c0.3-9.4,6.7-13.7,14-15
		c3.8-0.7,7.1,0.4,9.6,3.4c2.2,2.6,2.9,5.5,1.7,8.7c-1.2,3.1-3.8,4.5-6.9,4.9c-1.3,0.2-2.7,0-3.9-0.4c-1.7-0.5-2.5-2-2.1-3.7
		c0.3-1.4,1.4-2.2,3.2-2.2c0.5,0,1,0.1,1.6,0.1c1.2-0.1,2-0.6,2.2-1.8c0.2-1.2-0.6-2.1-1.8-2.4c-3.7-0.9-8.3,1.1-10,4.6
		c-2.8,5.5,0,11.6,6.3,13.2c9.2,2.3,17.8-3.1,20-11.5c1.9-7.6-2.4-15.9-9.9-18.5c-15.5-5.4-28.2,5.2-29.5,17.7
		c-1.5,14.1,7.7,23.1,18.7,24.8c9.4,1.5,17.9-1.1,24.9-7.6c8-7.5,10.4-19.6,6.3-29.8c-2.6-6.3-6.5-11.5-12.5-14.9
		c-3.1-1.8-6.5-2.8-10-3c-4.2-0.3-8.4-0.2-12.7-0.2c-0.9,0-1.8,0.1-2.7,0.1c-34.8,0-69.7,0-104.5,0c-4.9,0-9.8-0.4-14.7-0.3
		c-10.2,0.3-18.5,4.5-23.9,13.3c-6,9.9-5.6,20.1-0.2,30.1c1.8,3.4,4.7,6,8,7.9c7.4,4.2,15.2,5.9,23.6,3.6
		c9.7-2.6,16.1-10.4,16.3-20.4c0.3-14.3-10.4-22.3-21.2-22.6c-4.2-0.1-8.1,0.8-11.7,3.1c-8,5.2-9.5,15.3-3.6,22.7
		c4.2,5.3,11,7.5,17.1,5.6c2-0.6,3.6-1.7,5-3.3c2.5-2.9,2.9-6.2,1.1-9.7c-1.7-3.3-5.2-5.3-8.8-4.9c-0.4,0-0.7,0.1-1.1,0.2
		c-1.7,0.4-2.5,1.3-2.2,2.5c0.2,1.2,1.2,1.7,3,1.5c2.3-0.3,3.3,0.2,3.8,2c0.5,1.7-0.1,3.2-1.8,3.8c-3.2,1.2-6.2,0.6-8.8-1.5
		c-2.5-2.1-3.4-4.8-2.6-8c1-4,4.4-7,8.7-7.1c6.3-0.2,11.5,2.4,14.8,7.8c3.8,6.2,2.4,15.1-4.9,20.2c-5.4,3.7-11.3,3.9-17.3,2
		c-10.8-3.3-15.7-12-15.7-21.1c0-10.5,7.5-20.5,19.8-21.8c6.2-0.7,12.3-0.1,17.9,3.1c18.7,10.6,17.9,34.1,6.2,44.9
		c-9.6,8.9-25.6,12-38.7,3.8c-8.2-5.1-14.3-11.9-16.3-21.6c-2.4-12-0.1-23,8.8-31.9c5.9-6,13.2-9.6,21.7-10.4
		c2.2-0.2,4.4-0.3,6.7-0.3c20.1,0,40.3,0,60.4,0c0,0,0,0,0,0c20.8,0,41.6,0,62.4,0c5.9,0,11.7,0.6,17.2,3
		c11.9,5.2,18.7,14.3,20.8,27C307.5,139.2,292.4,155.9,274.7,158z"/>
</g>
</svg>
